<svg xmlns="http://www.w3.org/2000/svg" viewBox="0 0 1098.99 112.67"><defs><style>.cls-1{fill:#ed9f4a;}</style></defs><g id="Layer_2" data-name="Layer 2"><g id="Layer_1-2" data-name="Layer 1"><path class="cls-1" d="M38.65,45.64H25.77V11.11a5.07,5.07,0,0,0-.56-2.51,4,4,0,0,0-1.46-1.52,6.1,6.1,0,0,0-2.06-.76,12.27,12.27,0,0,0-4.73,0,6.1,6.1,0,0,0-2.06.76A4,4,0,0,0,13.44,8.6a5.07,5.07,0,0,0-.56,2.51v89.37c0,.51,0,1.11.1,1.81a4.55,4.55,0,0,0,.71,2,4.64,4.64,0,0,0,1.91,1.62,8.41,8.41,0,0,0,3.72.67,8.43,8.43,0,0,0,3.73-.67A4.64,4.64,0,0,0,25,104.29a4.55,4.55,0,0,0,.71-2c.06-.7.1-1.3.1-1.81V57.83H38.65v42.65a22.14,22.14,0,0,1-.3,2.76,8.27,8.27,0,0,1-2.12,4.1,15,15,0,0,1-5.73,3.71q-3.93,1.62-11.18,1.62T8.15,111.05a15,15,0,0,1-5.73-3.71,8.27,8.27,0,0,1-2.12-4.1,22.14,22.14,0,0,1-.3-2.76V11.11a7.81,7.81,0,0,1,1.71-5A12.66,12.66,0,0,1,6.19,2.6a24.68,24.68,0,0,1,6.19-2A38.28,38.28,0,0,1,19.32,0a36,36,0,0,1,7.2.7,23.46,23.46,0,0,1,6.19,2.09A12.77,12.77,0,0,1,37,6.28a7.74,7.74,0,0,1,1.61,4.83Z"/><path class="cls-1" d="M90.18,100.48a22.14,22.14,0,0,1-.3,2.76,8.33,8.33,0,0,1-2.11,4.1A15.07,15.07,0,0,1,82,111.05q-3.93,1.62-11.17,1.62t-11.17-1.62A15.07,15.07,0,0,1,54,107.34a8.36,8.36,0,0,1-2.12-4.1,22.14,22.14,0,0,1-.3-2.76V11.11c0-.34,0-.85.1-1.53a8.28,8.28,0,0,1,.61-2.25A8.46,8.46,0,0,1,54,4.79a11.88,11.88,0,0,1,3.32-2.38A21.15,21.15,0,0,1,62.7.67,41.91,41.91,0,0,1,70.86,0,41.73,41.73,0,0,1,79,.67a21,21,0,0,1,5.43,1.74,12.09,12.09,0,0,1,3.33,2.38,8.86,8.86,0,0,1,1.71,2.54,8.6,8.6,0,0,1,.6,2.25c.07.68.1,1.19.1,1.53Zm-25.76,0c0,.51,0,1.11.1,1.81a4.41,4.41,0,0,0,.7,2,4.64,4.64,0,0,0,1.91,1.62,8.46,8.46,0,0,0,3.73.67,8.41,8.41,0,0,0,3.72-.67,4.64,4.64,0,0,0,1.91-1.62,4.43,4.43,0,0,0,.71-2c.06-.7.1-1.3.1-1.81V11.11c0-.51,0-1.06-.1-1.65a3,3,0,0,0-.71-1.62A4.55,4.55,0,0,0,74.58,6.6a10.63,10.63,0,0,0-3.72-.51,10.69,10.69,0,0,0-3.73.51,4.55,4.55,0,0,0-1.91,1.24,3,3,0,0,0-.7,1.62,14,14,0,0,0-.1,1.65Z"/><path class="cls-1" d="M139.29,1h12.09l3.22,109.69H141.71V35.48L132,104.55h-6.42L116,35.67v75H103.06L106.29,1h13.58l9.71,75.53Z"/><path class="cls-1" d="M206.13,47.67a7.61,7.61,0,0,1-2.22,5.87,13.35,13.35,0,0,1-5.83,3,38.3,38.3,0,0,1-8.26,1.11c-3.08.1-6.24.16-9.46.16v52.81H167.48V1h12.88a82.88,82.88,0,0,1,14.9,1,23.27,23.27,0,0,1,7.65,2.54,5.66,5.66,0,0,1,2.82,3.3,15.44,15.44,0,0,1,.4,3.3ZM193.25,11.11a3.67,3.67,0,0,0-.66-2.35,3.94,3.94,0,0,0-2.16-1.21,19,19,0,0,0-4-.44q-2.46-.06-6.09-.06V51.73c1.61,0,3.19,0,4.73-.06a23.46,23.46,0,0,0,4.13-.44A7.48,7.48,0,0,0,192.14,50a2.75,2.75,0,0,0,1.11-2.35Z"/><path class="cls-1" d="M228.67,1v103.6h12.89v6.09H215.79V1Z"/><path class="cls-1" d="M283.43,7.05H267.32V49.7h12.89v6.1H267.32v48.75h16.11v6.09h-29V1h29Z"/><path class="cls-1" d="M328.52,1v6.1H315.63V110.64H302.75V7.05H289.87V1Z"/><path class="cls-1" d="M367.17,7.05H351.06V49.7H364v6.1H351.06v48.75h16.11v6.09h-29V1h29Z"/><path class="cls-1" d="M436.11,110.64H423.23l-1.61-26.41h-9.56l-1.71,26.41H397.46L407.12,1h19.33ZM420,53.76,416.79,5l-3.22,48.75-1.51,24.38h9.56Z"/><path class="cls-1" d="M458.66,100.48c0,.51,0,1.11.1,1.81a4.41,4.41,0,0,0,.7,2,4.68,4.68,0,0,0,1.92,1.62,10.66,10.66,0,0,0,7.44,0,4.74,4.74,0,0,0,1.92-1.62,4.53,4.53,0,0,0,.7-2c.07-.7.1-1.3.1-1.81V1h12.88v99.53a22.14,22.14,0,0,1-.3,2.76,8.25,8.25,0,0,1-2.11,4.1,15.07,15.07,0,0,1-5.74,3.71q-3.93,1.62-11.17,1.62t-11.17-1.62a15.07,15.07,0,0,1-5.74-3.71,8.25,8.25,0,0,1-2.11-4.1,22.78,22.78,0,0,1-.31-2.76V1h12.89Z"/><path class="cls-1" d="M532.74,1v6.1H519.85V110.64H507V7.05H494.09V1Z"/><path class="cls-1" d="M581.05,100.48a20.85,20.85,0,0,1-.31,2.76,8.25,8.25,0,0,1-2.11,4.1,15.07,15.07,0,0,1-5.74,3.71q-3.92,1.62-11.17,1.62t-11.17-1.62a15.07,15.07,0,0,1-5.74-3.71,8.25,8.25,0,0,1-2.11-4.1,22.14,22.14,0,0,1-.3-2.76V11.11c0-.34,0-.85.1-1.53a7.88,7.88,0,0,1,.6-2.25,8.86,8.86,0,0,1,1.71-2.54,12,12,0,0,1,3.32-2.38A21.1,21.1,0,0,1,553.57.67a49.9,49.9,0,0,1,16.3,0,21.1,21.1,0,0,1,5.44,1.74,11.88,11.88,0,0,1,3.32,2.38,8.66,8.66,0,0,1,1.71,2.54A8.28,8.28,0,0,1,581,9.58c.06.68.1,1.19.1,1.53Zm-25.77,0c0,.51,0,1.11.1,1.81a4.53,4.53,0,0,0,.7,2,4.68,4.68,0,0,0,1.92,1.62,10.69,10.69,0,0,0,7.45,0,4.64,4.64,0,0,0,1.91-1.62,4.41,4.41,0,0,0,.7-2c.07-.7.1-1.3.1-1.81V11.11a14,14,0,0,0-.1-1.65,3,3,0,0,0-.7-1.62,4.55,4.55,0,0,0-1.91-1.24,13.86,13.86,0,0,0-7.45,0,4.6,4.6,0,0,0-1.92,1.24,3.09,3.09,0,0,0-.7,1.62,14,14,0,0,0-.1,1.65Z"/><path class="cls-1" d="M632.58,47.67a7.61,7.61,0,0,1-2.22,5.87,13.35,13.35,0,0,1-5.83,3,38.3,38.3,0,0,1-8.26,1.11c-3.08.1-6.24.16-9.46.16v52.81H593.93V1h12.88a82.88,82.88,0,0,1,14.9,1,23.27,23.27,0,0,1,7.65,2.54,5.66,5.66,0,0,1,2.82,3.3,15.44,15.44,0,0,1,.4,3.3ZM619.7,11.11A3.67,3.67,0,0,0,619,8.76a3.94,3.94,0,0,0-2.16-1.21,19,19,0,0,0-4-.44q-2.46-.06-6.09-.06V51.73c1.61,0,3.19,0,4.73-.06a23.56,23.56,0,0,0,4.13-.44A7.48,7.48,0,0,0,618.59,50a2.75,2.75,0,0,0,1.11-2.35Z"/><path class="cls-1" d="M677.67,110.64H664.79l-1.61-26.41h-9.57l-1.71,26.41H639L648.68,1H668Zm-16.1-56.88L658.34,5l-3.22,48.75-1.51,24.38h9.57Z"/><path class="cls-1" d="M726,45.64c0,3-.8,5.16-2.41,6.35s-4,1.77-7.25,1.77a11.86,11.86,0,0,1,4.23.7,9.32,9.32,0,0,1,3,1.84A7.68,7.68,0,0,1,726,61.89v48.75H713.1V59.86A2.75,2.75,0,0,0,712,57.51a7.48,7.48,0,0,0-2.92-1.21,23.44,23.44,0,0,0-4.12-.44c-1.55,0-3.12-.06-4.74-.06v54.84H687.33V1h12.88c3.23,0,6.38.06,9.47.16a38.29,38.29,0,0,1,8.25,1.11,13.45,13.45,0,0,1,5.84,3A7.64,7.64,0,0,1,726,11.11ZM713.1,11.11a3.67,3.67,0,0,0-.66-2.35,3.87,3.87,0,0,0-2.16-1.21,19,19,0,0,0-4-.44q-2.46-.06-6.09-.06V51.73c1.62,0,3.19,0,4.74-.06a23.44,23.44,0,0,0,4.12-.44A7.48,7.48,0,0,0,712,50a2.75,2.75,0,0,0,1.11-2.35Z"/><path class="cls-1" d="M774.29,1v6.1H761.41V110.64H748.53V7.05H735.64V1Z"/><path class="cls-1" d="M806.5,83.91a52.21,52.21,0,0,0-1.11-11.55A36.45,36.45,0,0,0,802.48,64a25.13,25.13,0,0,0-4.28-6.17l-4.78-5L788.83,48a30.55,30.55,0,0,1-4.07-5.34,27.91,27.91,0,0,1-2.92-6.89,34.51,34.51,0,0,1-1.11-9.36V11.11a9.74,9.74,0,0,1,.76-3.46A8.8,8.8,0,0,1,784.36,4a18.26,18.26,0,0,1,5.89-2.86,41.71,41.71,0,0,1,19.62,0A18.26,18.26,0,0,1,815.76,4a8.88,8.88,0,0,1,2.87,3.62,9.71,9.71,0,0,1,.75,3.46V39.55H806.5V11.11A5.18,5.18,0,0,0,806,8.6a4.1,4.1,0,0,0-1.46-1.52,6.24,6.24,0,0,0-2.07-.76,12.27,12.27,0,0,0-4.73,0,6.1,6.1,0,0,0-2.06.76,4,4,0,0,0-1.46,1.52,5,5,0,0,0-.55,2.5V23.45a32,32,0,0,0,2,12,32.76,32.76,0,0,0,4.89,8.4q2.94,3.57,5.94,6.62l6.2,6.31a23.14,23.14,0,0,1,5,7.75,30.35,30.35,0,0,1,1.78,11.16v24.8a22.43,22.43,0,0,1-.3,2.77,8.37,8.37,0,0,1-2.11,4.1,15.08,15.08,0,0,1-5.74,3.72q-3.93,1.62-11.17,1.62t-11.17-1.62a15.07,15.07,0,0,1-5.74-3.71,8.25,8.25,0,0,1-2.11-4.1,20.85,20.85,0,0,1-.31-2.76V63.92h12.89v36.56c0,.51,0,1.11.1,1.81a4.41,4.41,0,0,0,.7,2,4.64,4.64,0,0,0,1.91,1.62,10.69,10.69,0,0,0,7.45,0,4.64,4.64,0,0,0,1.91-1.62,4.43,4.43,0,0,0,.71-2c.06-.7.1-1.3.1-1.81Z"/><path class="cls-1" d="M865.78,100.48c0,.51,0,1.11.1,1.81a4.43,4.43,0,0,0,.71,2,4.64,4.64,0,0,0,1.91,1.62,10.69,10.69,0,0,0,7.45,0,4.64,4.64,0,0,0,1.91-1.62,4.41,4.41,0,0,0,.7-2c.07-.7.11-1.3.11-1.81V1h12.88v99.53a22.14,22.14,0,0,1-.3,2.76,8.36,8.36,0,0,1-2.12,4.1,15.1,15.1,0,0,1-5.73,3.71q-3.93,1.62-11.18,1.62t-11.17-1.62a15.07,15.07,0,0,1-5.74-3.71,8.33,8.33,0,0,1-2.11-4.1,22.14,22.14,0,0,1-.3-2.76V1h12.88Z"/><path class="cls-1" d="M942.12,110.64H930.2L917.31,55.73v54.91H904.43V1h12.88V51.73L930.2,1h12.74L930.07,47.66l-2.22,6.2,1.52,6.07Z"/><path class="cls-1" d="M989.48,1v103.6h12.88v6.09H976.6V1Z"/><path class="cls-1" d="M1050.67,1v6.1h-12.88V110.64h-12.88V7.05H1012V1Z"/><path class="cls-1" d="M1099,100.48a7.61,7.61,0,0,1-2.22,5.87,13.29,13.29,0,0,1-5.84,3,37.51,37.51,0,0,1-8.25,1.11q-4.64.17-9.46.16h-12.88V1h12.88c3.22,0,6.37.06,9.46.16a38.12,38.12,0,0,1,8.25,1.11,13.39,13.39,0,0,1,5.84,3,7.61,7.61,0,0,1,2.22,5.87ZM1086.1,11.11a3.74,3.74,0,0,0-.65-2.35,3.93,3.93,0,0,0-2.17-1.21,18.85,18.85,0,0,0-4-.44q-2.47-.06-6.09-.06v97.5c2.41,0,4.44,0,6.09-.07a18.85,18.85,0,0,0,4-.44,3.93,3.93,0,0,0,2.17-1.21,3.74,3.74,0,0,0,.65-2.35Z"/></g></g></svg>